<svg width="133" height="43" viewBox="0 0 133 43" fill="none" xmlns="http://www.w3.org/2000/svg">
<path d="M18.888 17.248C21.8 17.248 22.976 15.512 22.976 12.936C22.976 10.192 21.24 7.224 17.264 7.224C12.28 7.224 10.936 12.32 6.568 12.32C3.88 12.32 1.752 10.192 1.752 7.504C1.752 4.872 3.88 2.688 6.568 2.688C8.864 2.688 10.824 4.312 11.272 6.44C12.84 5.488 14.632 4.536 17.712 4.536C22.808 4.536 28.52 8.176 28.52 15.736V17.472C30.928 14.784 34.344 13.104 37.648 13.104C42.52 13.104 46.552 16.352 46.552 24.528V34.776C46.552 39.704 48.064 39.144 48.064 40.656C48.064 41.384 47.448 42 46.608 42H36.92C36.024 42 35.408 41.384 35.408 40.656C35.408 39.144 36.92 39.704 36.92 34.776V22.736C36.92 19.768 35.016 18.48 33.056 18.48C30.872 18.48 28.52 20.104 28.52 22.736V34.776C28.52 39.704 30.032 39.144 30.032 40.656C30.032 41.384 29.416 42 28.52 42H18.832C17.992 42 17.376 41.384 17.376 40.656C17.376 39.144 18.888 39.704 18.888 34.776V24.472C18.888 19.544 17.376 20.104 17.376 18.592C17.376 17.808 17.992 17.248 18.832 17.248H18.888ZM0.24 40.656C0.24 39.144 1.752 39.704 1.752 34.776V24.472C1.752 19.544 0.24 20.104 0.24 18.592C0.24 17.808 0.856 17.248 1.696 17.248C5.504 17.248 6.736 14 9.648 14C10.6 14 11.384 14.784 11.384 15.736V34.776C11.384 39.704 12.896 39.144 12.896 40.656C12.896 41.384 12.28 42 11.384 42H1.696C0.856 42 0.24 41.384 0.24 40.656ZM63.1184 34.776C63.1184 39.704 64.6304 39.144 64.6304 40.656C64.6304 41.384 64.0144 42 63.1744 42H53.4864C52.5904 42 51.9744 41.384 51.9744 40.656C51.9744 39.144 53.4864 39.704 53.4864 34.776V11.088C53.4864 6.104 51.9744 6.664 51.9744 5.152C51.9744 4.368 52.5904 3.808 53.4864 3.808C57.2384 3.808 58.4704 0.559999 61.3824 0.559999C62.3344 0.559999 63.1184 1.344 63.1184 2.296V34.776ZM79.6458 16.24C76.6778 17.024 75.7258 22.96 77.4618 29.456C79.1978 35.952 83.0058 40.544 85.9738 39.76C88.9418 38.976 89.9498 33.04 88.2138 26.544C86.4778 20.048 82.6698 15.456 79.6458 16.24ZM67.1578 28C67.1578 19.768 74.1578 13.104 82.8378 13.104C91.4618 13.104 98.4618 19.768 98.4618 28C98.4618 36.232 91.4618 42.896 82.8378 42.896C74.1578 42.896 67.1578 36.232 67.1578 28ZM113.771 16.24C110.803 17.024 109.851 22.96 111.587 29.456C113.323 35.952 117.131 40.544 120.099 39.76C123.067 38.976 124.075 33.04 122.339 26.544C120.603 20.048 116.795 15.456 113.771 16.24ZM101.283 28C101.283 19.768 108.283 13.104 116.963 13.104C125.587 13.104 132.587 19.768 132.587 28C132.587 36.232 125.587 42.896 116.963 42.896C108.283 42.896 101.283 36.232 101.283 28Z" fill="#1F3F49"/>
</svg>
